<svg width="1049" height="165" viewBox="0 0 1049 165" fill="none" xmlns="http://www.w3.org/2000/svg">
<path d="M339.273 30.9091V124H320.182L283.136 70.2727H282.545V124H260.045V30.9091H279.409L316.045 84.5455H316.818V30.9091H339.273ZM386.057 125.318C378.754 125.318 372.451 123.879 367.148 121C361.875 118.091 357.814 113.955 354.966 108.591C352.148 103.197 350.739 96.7879 350.739 89.3636C350.739 82.1515 352.163 75.8485 355.011 70.4545C357.86 65.0303 361.875 60.8182 367.057 57.8182C372.239 54.7879 378.345 53.2727 385.375 53.2727C390.345 53.2727 394.89 54.0455 399.011 55.5909C403.133 57.1364 406.693 59.4242 409.693 62.4545C412.693 65.4848 415.027 69.2273 416.693 73.6818C418.36 78.1061 419.193 83.1818 419.193 88.9091V94.4545H358.511V81.5455H398.511C398.481 79.1818 397.92 77.0758 396.83 75.2273C395.739 73.3788 394.239 71.9394 392.33 70.9091C390.451 69.8485 388.284 69.3182 385.83 69.3182C383.345 69.3182 381.117 69.8788 379.148 71C377.178 72.0909 375.617 73.5909 374.466 75.5C373.314 77.3788 372.708 79.5151 372.648 81.9091V95.0455C372.648 97.8939 373.208 100.394 374.33 102.545C375.451 104.667 377.042 106.318 379.102 107.5C381.163 108.682 383.617 109.273 386.466 109.273C388.436 109.273 390.223 109 391.83 108.455C393.436 107.909 394.814 107.106 395.966 106.045C397.117 104.985 397.981 103.682 398.557 102.136L418.966 102.727C418.117 107.303 416.254 111.288 413.375 114.682C410.527 118.045 406.784 120.667 402.148 122.545C397.511 124.394 392.148 125.318 386.057 125.318ZM475.591 93.8636V54.1818H497.773V124H476.591V111H475.864C474.318 115.273 471.682 118.667 467.955 121.182C464.258 123.667 459.788 124.909 454.545 124.909C449.788 124.909 445.606 123.818 442 121.636C438.394 119.455 435.591 116.409 433.591 112.5C431.591 108.561 430.576 103.955 430.545 98.6818V54.1818H452.773V94.3182C452.803 98.1061 453.803 101.091 455.773 103.273C457.742 105.455 460.424 106.545 463.818 106.545C466.03 106.545 468.015 106.061 469.773 105.091C471.561 104.091 472.97 102.652 474 100.773C475.061 98.8636 475.591 96.5606 475.591 93.8636ZM511.92 124V54.1818H533.511V66.9091H534.239C535.511 62.303 537.587 58.8788 540.466 56.6364C543.345 54.3636 546.693 53.2273 550.511 53.2273C551.542 53.2273 552.602 53.303 553.693 53.4545C554.784 53.5758 555.799 53.7727 556.739 54.0455V73.3636C555.678 73 554.284 72.7121 552.557 72.5C550.86 72.2879 549.345 72.1818 548.011 72.1818C545.375 72.1818 542.996 72.7727 540.875 73.9545C538.784 75.1061 537.133 76.7273 535.92 78.8182C534.739 80.8788 534.148 83.303 534.148 86.0909V124H511.92ZM594.761 125.318C587.428 125.318 581.125 123.818 575.852 120.818C570.61 117.788 566.564 113.576 563.716 108.182C560.898 102.758 559.489 96.4697 559.489 89.3182C559.489 82.1364 560.898 75.8485 563.716 70.4545C566.564 65.0303 570.61 60.8182 575.852 57.8182C581.125 54.7879 587.428 53.2727 594.761 53.2727C602.095 53.2727 608.383 54.7879 613.625 57.8182C618.898 60.8182 622.943 65.0303 625.761 70.4545C628.61 75.8485 630.034 82.1364 630.034 89.3182C630.034 96.4697 628.61 102.758 625.761 108.182C622.943 113.576 618.898 117.788 613.625 120.818C608.383 123.818 602.095 125.318 594.761 125.318ZM594.898 108.545C597.564 108.545 599.822 107.727 601.67 106.091C603.519 104.455 604.928 102.182 605.898 99.2727C606.898 96.3636 607.398 93 607.398 89.1818C607.398 85.303 606.898 81.9091 605.898 79C604.928 76.0909 603.519 73.8182 601.67 72.1818C599.822 70.5455 597.564 69.7273 594.898 69.7273C592.14 69.7273 589.807 70.5455 587.898 72.1818C586.019 73.8182 584.58 76.0909 583.58 79C582.61 81.9091 582.125 85.303 582.125 89.1818C582.125 93 582.61 96.3636 583.58 99.2727C584.58 102.182 586.019 104.455 587.898 106.091C589.807 107.727 592.14 108.545 594.898 108.545ZM691.739 58.8182C691.436 55.4848 690.087 52.8939 687.693 51.0455C685.33 49.1667 681.951 48.2273 677.557 48.2273C674.648 48.2273 672.223 48.6061 670.284 49.3636C668.345 50.1212 666.89 51.1667 665.92 52.5C664.951 53.803 664.451 55.303 664.42 57C664.36 58.3939 664.633 59.6212 665.239 60.6818C665.875 61.7424 666.784 62.6818 667.966 63.5C669.178 64.2879 670.633 64.9848 672.33 65.5909C674.027 66.197 675.936 66.7273 678.057 67.1818L686.057 69C690.663 70 694.723 71.3333 698.239 73C701.784 74.6667 704.754 76.6515 707.148 78.9545C709.572 81.2576 711.405 83.9091 712.648 86.9091C713.89 89.9091 714.527 93.2727 714.557 97C714.527 102.879 713.042 107.924 710.102 112.136C707.163 116.348 702.936 119.576 697.42 121.818C691.936 124.061 685.314 125.182 677.557 125.182C669.769 125.182 662.981 124.015 657.193 121.682C651.405 119.348 646.905 115.803 643.693 111.045C640.481 106.288 638.83 100.273 638.739 93H660.284C660.466 96 661.269 98.5 662.693 100.5C664.117 102.5 666.072 104.015 668.557 105.045C671.072 106.076 673.981 106.591 677.284 106.591C680.314 106.591 682.89 106.182 685.011 105.364C687.163 104.545 688.814 103.409 689.966 101.955C691.117 100.5 691.708 98.8333 691.739 96.9545C691.708 95.197 691.163 93.697 690.102 92.4545C689.042 91.1818 687.405 90.0909 685.193 89.1818C683.011 88.2424 680.223 87.3788 676.83 86.5909L667.102 84.3182C659.042 82.4697 652.693 79.4848 648.057 75.3636C643.42 71.2121 641.117 65.6061 641.148 58.5455C641.117 52.7879 642.663 47.7424 645.784 43.4091C648.905 39.0758 653.223 35.697 658.739 33.2727C664.254 30.8485 670.542 29.6364 677.602 29.6364C684.814 29.6364 691.072 30.8636 696.375 33.3182C701.708 35.7424 705.845 39.1515 708.784 43.5455C711.723 47.9394 713.223 53.0303 713.284 58.8182H691.739ZM748.148 84.1818V124H725.92V30.9091H747.42V67H748.193C749.769 62.697 752.345 59.3333 755.92 56.9091C759.527 54.4848 763.936 53.2727 769.148 53.2727C774.057 53.2727 778.33 54.3636 781.966 56.5455C785.602 58.697 788.42 61.7424 790.42 65.6818C792.451 69.6212 793.451 74.2273 793.42 79.5V124H771.193V83.8636C771.223 79.9848 770.254 76.9545 768.284 74.7727C766.314 72.5909 763.542 71.5 759.966 71.5C757.633 71.5 755.572 72.0152 753.784 73.0455C752.027 74.0455 750.648 75.4848 749.648 77.3636C748.678 79.2424 748.178 81.5151 748.148 84.1818ZM826.977 125.182C822.523 125.182 818.568 124.439 815.114 122.955C811.689 121.439 808.977 119.167 806.977 116.136C805.008 113.076 804.023 109.242 804.023 104.636C804.023 100.758 804.705 97.4848 806.068 94.8182C807.432 92.1515 809.311 89.9848 811.705 88.3182C814.098 86.6515 816.856 85.3939 819.977 84.5455C823.098 83.6667 826.432 83.0758 829.977 82.7727C833.947 82.4091 837.144 82.0303 839.568 81.6364C841.992 81.2121 843.75 80.6212 844.841 79.8636C845.962 79.0758 846.523 77.9697 846.523 76.5455V76.3182C846.523 73.9848 845.72 72.1818 844.114 70.9091C842.508 69.6364 840.341 69 837.614 69C834.674 69 832.311 69.6364 830.523 70.9091C828.735 72.1818 827.598 73.9394 827.114 76.1818L806.614 75.4545C807.22 71.2121 808.78 67.4242 811.295 64.0909C813.841 60.7273 817.326 58.0909 821.75 56.1818C826.205 54.2424 831.553 53.2727 837.795 53.2727C842.25 53.2727 846.356 53.803 850.114 54.8636C853.871 55.8939 857.144 57.4091 859.932 59.4091C862.72 61.3788 864.871 63.803 866.386 66.6818C867.932 69.5606 868.705 72.8485 868.705 76.5455V124H847.795V114.273H847.25C846.008 116.636 844.417 118.636 842.477 120.273C840.568 121.909 838.311 123.136 835.705 123.955C833.129 124.773 830.22 125.182 826.977 125.182ZM833.841 110.636C836.235 110.636 838.386 110.152 840.295 109.182C842.235 108.212 843.78 106.879 844.932 105.182C846.083 103.455 846.659 101.455 846.659 99.1818V92.5455C846.023 92.8788 845.25 93.1818 844.341 93.4545C843.462 93.7273 842.492 93.9848 841.432 94.2273C840.371 94.4697 839.28 94.6818 838.159 94.8636C837.038 95.0455 835.962 95.2121 834.932 95.3636C832.841 95.697 831.053 96.2121 829.568 96.9091C828.114 97.6061 826.992 98.5152 826.205 99.6364C825.447 100.727 825.068 102.03 825.068 103.545C825.068 105.848 825.886 107.606 827.523 108.818C829.189 110.03 831.295 110.636 833.841 110.636ZM882.295 124V54.1818H903.886V66.9091H904.614C905.886 62.303 907.962 58.8788 910.841 56.6364C913.72 54.3636 917.068 53.2273 920.886 53.2273C921.917 53.2273 922.977 53.303 924.068 53.4545C925.159 53.5758 926.174 53.7727 927.114 54.0455V73.3636C926.053 73 924.659 72.7121 922.932 72.5C921.235 72.2879 919.72 72.1818 918.386 72.1818C915.75 72.1818 913.371 72.7727 911.25 73.9545C909.159 75.1061 907.508 76.7273 906.295 78.8182C905.114 80.8788 904.523 83.303 904.523 86.0909V124H882.295ZM956.216 105.682L956.307 79.1818H959.398L979.034 54.1818H1004.22L975.034 90H969.17L956.216 105.682ZM936.17 124V30.9091H958.398V124H936.17ZM979.534 124L961.261 95L975.898 79.2273L1005.22 124H979.534Z" fill="white"/>
<path d="M54.198 6.25548C58.5697 6.67007 59.9467 6.87068 63.7569 7.59288C72.166 9.21112 78.3826 11.244 86.4842 15.0823C95.388 19.2817 102.313 24.0161 110.081 31.2247C115.054 35.8387 120.95 42.8868 124.653 48.651C128.209 54.1878 132.527 62.5198 135.589 69.715C137.607 74.4494 139.88 78.9296 143.343 85.0282C148.156 93.4671 154.987 102.682 160.99 108.794C166.525 114.451 170.843 118.276 174.573 120.87C176.03 121.887 176.551 122.301 176.458 122.382C176.177 122.609 172.928 124.147 171.845 124.548C168.61 125.752 166.952 126.086 162.781 126.354C159.573 126.568 154.466 126.113 152.059 125.404C150.468 124.923 147.059 123.358 145.107 122.208C140.762 119.627 137.42 117.875 135.254 117.045C133.49 116.363 130.696 115.695 127.594 115.227C125.041 114.852 124.506 114.812 121.645 114.812C119.92 114.812 117.875 114.892 117.099 114.972C113.436 115.387 109.666 116.203 107.474 117.045C105.655 117.754 102.006 119.64 99.1179 121.365C96.003 123.238 95.6554 123.411 93.3559 124.388C91.0297 125.377 90.1607 125.618 87.3532 126.033C83.3559 126.635 78.8371 126.528 74.6526 125.752C72.1259 125.27 68.9039 123.853 64.8932 121.445C61.8986 119.653 58.9039 118.089 56.7515 117.193C55.1472 116.537 51.8183 115.695 49.198 115.293C47.4066 115.026 46.2969 114.946 43.5028 114.892C40.321 114.825 36.7381 114.986 36.1766 115.2C35.7354 115.36 35.9627 114.932 36.9386 113.729C42.0456 107.389 45.8825 99.3116 47.9012 90.6319C48.7702 86.8871 49.452 82.0324 49.452 79.6117V78.5953L50.0937 78.3278C50.4413 78.1807 51.6846 77.726 52.8611 77.3248C55.8023 76.3351 56.2568 76.1478 58.944 74.9174C60.7756 74.0883 62.2194 73.3126 63.289 72.5904C64.2916 71.8949 65.0537 71.1861 64.8665 71.0791C64.813 71.0524 64.1312 70.825 63.3558 70.5976C58.4761 69.0998 55.6954 67.7089 53.3691 65.569C51.7515 64.0979 50.6151 62.0651 50.6151 60.6875C50.6151 57.8656 50.3477 49.4801 50.1873 47.3804C49.5991 39.8375 48.5429 34.2873 46.8451 29.7268C45.5483 26.2496 42.9279 22.0903 40.8825 20.2446C40.1071 19.5492 37.5937 17.6635 36.4841 16.9413C36.083 16.6738 34.8798 15.9917 33.8102 15.4033C30.976 13.8519 29.7461 12.5279 29.9867 11.2975C30.2942 9.75945 31.8985 8.62267 35.214 7.60625C37.4466 6.92418 38.7033 6.68344 41.5643 6.38922C43.075 6.22873 44.3718 6.08162 44.4386 6.05487C44.5188 6.02812 46.1098 6.00137 47.9814 6.00137C50.4413 5.98799 52.1659 6.06824 54.198 6.25548ZM49.9066 125.899C52.6873 126.233 55.174 126.849 57.9681 127.865C59.5323 128.453 64.1579 130.7 65.1339 131.356C65.4146 131.543 66.0965 131.957 66.6713 132.252C67.2328 132.559 68.0617 133.041 68.5029 133.308C70.8023 134.739 74.4387 136.157 76.8585 136.585C80.1607 137.16 86.4575 137.2 89.6259 136.665C91.3372 136.371 94.1046 135.502 95.642 134.779C97.0725 134.097 99.9468 132.533 100.923 131.904C101.404 131.61 102.273 131.088 102.861 130.781C103.45 130.46 104.359 129.965 104.867 129.684C107.126 128.467 110.214 127.29 113.022 126.608C115.228 126.073 116.966 125.846 120.174 125.672C126.23 125.337 131.658 125.979 135.883 127.504C136.404 127.691 137.166 127.972 137.581 128.119C138.677 128.494 142.688 130.486 144.212 131.409C145.976 132.479 149.131 134.285 149.787 134.619C150.696 135.06 153.209 135.943 154.613 136.304C158.303 137.254 165.709 137.32 169.706 136.451C172.059 135.93 174.854 134.766 177.795 133.081C178.57 132.64 180.255 131.677 181.538 130.941C183.597 129.764 186.083 128.494 186.324 128.494C186.378 128.494 186.605 128.4 186.819 128.28C187.648 127.852 190.682 126.889 192.487 126.501C194.8 125.993 197.019 125.725 199.934 125.605C201.792 125.538 202.34 125.551 203.022 125.725C204.493 126.113 205.469 126.942 206.11 128.36C206.551 129.296 206.618 130.232 206.351 131.275C206.084 132.332 205.629 133.041 204.8 133.696C203.704 134.565 202.902 134.793 200.522 134.926C193.838 135.301 190.308 136.478 183.677 140.517C183.049 140.891 181.351 141.801 179.907 142.523C174.88 145.037 170.923 146.067 164.787 146.428C161.23 146.642 156.431 146.281 152.902 145.545C150.696 145.077 146.337 143.432 144.238 142.269C142.915 141.533 141.244 140.57 139.693 139.647C136.19 137.575 131.939 135.849 129.198 135.381C127.674 135.127 124.72 134.913 122.621 134.913C120.642 134.913 117.139 135.247 116.27 135.515C115.923 135.622 115.535 135.716 115.401 135.716C115.121 135.716 112.153 136.652 111.484 136.959C108.623 138.243 108.704 138.203 105.201 140.276C102.046 142.135 98.6367 143.767 96.15 144.596C94.0912 145.278 91.9655 145.799 90.6286 145.973C90.3746 146 89.4388 146.12 88.5564 146.241C86.043 146.575 80.7489 146.535 77.8746 146.161C74.7997 145.773 73.2623 145.438 71.043 144.676C67.7943 143.553 65.8157 142.657 63.3825 141.172C62.928 140.891 62.5269 140.664 62.4868 140.664C62.4601 140.664 61.6045 140.169 60.5884 139.581C57.9547 138.029 55.8424 137.04 53.4627 136.264C50.9894 135.461 49.7595 135.221 47.1793 135.047C39.8263 134.552 34.9332 135.515 29.1979 138.578C28.3958 139.019 27.3396 139.621 26.8584 139.928C25.6952 140.664 22.4599 142.429 20.8557 143.165C18.9439 144.061 15.254 145.278 13.2888 145.666C9.9198 146.308 5.6016 146.669 4.13101 146.415C2.32619 146.107 1.18982 145.318 0.494631 143.9C0.0935601 143.098 0.0534536 142.897 0.0534536 141.801C0.0534536 140.758 0.106929 140.49 0.427785 139.795C0.922439 138.751 1.87164 137.842 2.82084 137.534C3.62298 137.267 4.87967 137.12 7.87434 136.933C12.0588 136.652 14.2113 136.036 18.4091 133.897C19.8931 133.134 21.5107 132.252 22.0188 131.931C23.115 131.208 26.2969 129.483 27.7273 128.828C31.9118 126.889 35.8691 125.939 40.7621 125.685C43.4359 125.538 47.8611 125.645 49.9066 125.899ZM48.4092 144.689C51.8183 145.037 55.6151 145.933 58.4761 147.043C60.936 147.993 61.5242 148.3 66.297 151.029C68.7168 152.42 71.6981 153.958 72.8478 154.412C75.6553 155.522 79.1045 156.084 83.3425 156.097C86.6045 156.111 88.1955 155.964 90.7623 155.375C93.6901 154.707 96.6581 153.49 99.2516 151.898C108.142 146.415 114.198 144.542 122.968 144.542C127.26 144.542 130.535 144.944 133.877 145.893C136.364 146.575 136.15 146.508 139.359 147.886C140.094 148.207 140.976 148.621 141.311 148.809C141.645 148.996 142.353 149.397 142.888 149.691C143.423 149.986 144.559 150.641 145.415 151.149C147.367 152.299 151.137 154.185 152.193 154.546C154.746 155.429 156.912 155.843 159.907 156.057C165.335 156.445 170.883 155.549 174.92 153.637C175.883 153.182 177.126 152.5 179.466 151.122C179.907 150.868 180.656 150.44 181.137 150.186C181.618 149.932 182.153 149.611 182.34 149.491C182.527 149.357 183.423 148.889 184.346 148.448C189.412 145.987 194.239 144.77 199.733 144.582C202.728 144.475 203.276 144.556 204.292 145.251C205.322 145.96 205.789 146.548 206.15 147.551C206.872 149.611 206.244 151.684 204.533 152.861C203.49 153.597 202.795 153.757 199.72 153.971C193.49 154.399 190.134 155.589 183.075 159.869C179.346 162.129 175.255 163.774 171.297 164.63C169.867 164.924 169.68 164.938 162.554 164.938C154.947 164.938 154.653 164.924 152.193 164.322C148.958 163.533 145.535 162.009 140.495 159.133C139.426 158.518 138.035 157.729 137.393 157.355C133.329 155.054 128.597 153.904 123.169 153.904C119.733 153.904 116.712 154.265 114.091 155.001C113.423 155.188 110.188 156.485 109.439 156.86C108.69 157.248 104.733 159.481 104.091 159.882C103.476 160.27 103.102 160.484 101.458 161.367C99.118 162.624 95.6019 163.908 92.7008 164.563L91.0965 164.924L84.412 164.978C79.9067 165.005 77.2997 164.978 76.3906 164.871C72.0457 164.376 67.7275 162.704 61.6178 159.173C56.9387 156.459 55.1472 155.616 52.5937 154.947C49.813 154.225 48.2622 154.011 45.214 153.944C38.1552 153.77 34.1846 154.76 27.9279 158.291C26.9386 158.839 25.7086 159.561 25.1872 159.882C22.1658 161.781 17.353 163.761 13.8236 164.55C12.3396 164.871 11.9251 164.911 8.31551 164.964C3.48929 165.058 2.60694 164.991 1.83153 164.47C1.10961 163.988 0.427786 162.985 0.187143 162.049C-0.427832 159.775 0.49463 157.716 2.63367 156.592C3.06148 156.365 4.18448 156.204 6.13636 156.111C9.42514 155.937 11.7915 155.522 14.6257 154.6C16.4439 154.011 18.1551 153.142 22.3797 150.694C26.1231 148.514 27.5402 147.819 29.8664 146.976C32.2995 146.107 32.7541 145.973 34.7461 145.492C36.4841 145.091 36.7648 145.037 39.2247 144.743C41.0563 144.529 46.5777 144.489 48.4092 144.689Z" fill="white"/>
</svg>
